<svg id="Capa_1" fill="#ababab" enable-background="new 0 0 510 510" height="512" viewBox="0 0 510 510" width="512" xmlns="http://www.w3.org/2000/svg"><g><path d="m510 30v-30h-90-15-75v75c0 19.555 12.541 36.229 30 42.42v32.58h30v-32.58c17.459-6.191 30-22.865 30-42.42v-45h30v225h-45v-15c0-24.814-20.186-45-45-45h-120c-24.814 0-45 20.186-45 45v15h-24.569l-90-75h-80.431v165h75v77.58c-17.459 6.192-30 22.865-30 42.42 0 24.814 20.187 45 45 45s45-20.186 45-45c0-19.555-12.541-36.228-30-42.42v-17.58h300v17.58c-17.459 6.192-30 22.865-30 42.42 0 24.814 20.186 45 45 45s45-20.186 45-45c0-19.555-12.541-36.228-30-42.42v-77.58h75v-90h-30v-225zm-120 45c0 8.271-6.728 15-15 15s-15-6.729-15-15v-45h30zm-15 165v15h-30v-30h15c8.272 0 15 6.729 15 15zm-90 15v-30h30v30zm-60-15c0-8.271 6.729-15 15-15h15v30h-30zm-195-30h39.569l54 45h-93.569zm60 270c-8.271 0-15-6.728-15-15s6.729-15 15-15 15 6.728 15 15-6.729 15-15 15zm330 0c-8.272 0-15-6.728-15-15s6.728-15 15-15 15 6.728 15 15-6.728 15-15 15zm-15-105h-300v-30h300zm75-60h-450v-30h450z"/></g></svg>